<?xml version="1.0" encoding="UTF-8" standalone="no"?>
<svg width="244px" height="243px" viewBox="0 0 244 243" version="1.1" xmlns="http://www.w3.org/2000/svg" xmlns:xlink="http://www.w3.org/1999/xlink" xmlns:sketch="http://www.bohemiancoding.com/sketch/ns">
    <!-- Generator: Sketch 3.3 (11970) - http://www.bohemiancoding.com/sketch -->
    <title>Brand Mark</title>
    <desc>Created with Sketch.</desc>
    <defs></defs>
    <g id="Page-1" stroke="none" stroke-width="1" fill="none" fill-rule="evenodd" sketch:type="MSPage">
        <g id="Brand-Mark" sketch:type="MSLayerGroup" fill="#5BC0BE">
            <path d="M0.697,121.334 C0.697,188.327 55.006,242.636 122,242.636 C146.297,242.636 167.389,210.035 168.734,208.184 C178.621,194.569 178.34,171.496 178.34,155.288 L178.34,13.958 C161.497,5.102 142.351,0.031 122,0.031 C55.006,0.031 0.697,54.34 0.697,121.334 L0.697,121.334 Z M148.522,89.799 C137.136,76.838 123.225,69.882 106.151,69.882 C78.329,69.882 56.831,94.542 56.831,121.734 C56.831,152.087 78.01,174.222 108.051,174.222 C124.493,174.222 137.773,166.636 148.522,154.618 L148.522,190.977 C135.555,197.933 122.594,200.782 107.733,200.782 C64.099,200.782 28.371,167.267 28.371,123.002 C28.371,77.156 63.786,43.322 109.314,43.322 C122.594,43.322 137.136,46.484 148.522,53.121 L148.522,89.799 L148.522,89.799 Z" id="Fill-1" sketch:type="MSShapeGroup"></path>
            <path d="M208.062,35.876 L208.062,155.288 C208.062,177.036 206.065,198.851 198.032,215.78 C225.617,193.545 243.303,159.523 243.303,121.334 C243.303,87.991 229.836,57.803 208.062,35.876" id="Fill-2" sketch:type="MSShapeGroup"></path>
        </g>
    </g>
</svg>